<?xml version="1.0" encoding="utf-8"?>
<!-- Generator: Adobe Illustrator 21.0.2, SVG Export Plug-In . SVG Version: 6.00 Build 0)  -->
<svg version="1.1" id="Layer_1" xmlns="http://www.w3.org/2000/svg" xmlns:xlink="http://www.w3.org/1999/xlink" x="0px" y="0px"
	 viewBox="0 0 72 72" style="enable-background:new 0 0 72 72;" xml:space="preserve">
<style type="text/css">
	.st0{enable-background:new    ;}
	.st1{fill:none;stroke:#000000;stroke-width:2;stroke-miterlimit:10;}
</style>
<g class="st0">
	<path d="M37.5,14.6l2.5,33h-4.3l-1.3-19.2L22.7,49.8l-6.5-21.4l-6,19.2H5.7l10.4-32.3L23.7,40L37.5,14.6z"/>
	<path d="M65.5,38.3c0,2.8-1,5.2-2.9,7.1c-1.9,1.9-4.3,2.9-7.2,2.9c-3,0-5.4-0.9-7.3-2.7c-1.9-1.8-2.9-4.1-2.9-6.9
		c0-2.9,1-5.2,3-7.1c2-1.9,4.5-2.9,7.4-2.9c2.9,0,5.3,0.9,7.1,2.7C64.6,33.1,65.5,35.4,65.5,38.3z M61.1,38.1c0-1.8-0.5-3.2-1.5-4.2
		c-1-1.1-2.4-1.6-4-1.6c-1.7,0-3.2,0.6-4.3,1.8c-1.1,1.2-1.7,2.7-1.7,4.5c0,1.8,0.5,3.3,1.6,4.4c1.1,1.1,2.5,1.7,4.1,1.7
		s3.1-0.6,4.2-1.9C60.6,41.6,61.1,40,61.1,38.1z"/>
</g>
<rect class="st1" width="72" height="72"/>
</svg>
